<svg width="313" height="141" viewBox="0 0 313 141" fill="none" xmlns="http://www.w3.org/2000/svg">
<path d="M250.194 27.6809C246.126 27.6809 242.636 26.3322 239.725 23.6347C236.856 20.8945 235.422 17.619 235.422 13.8083C235.422 10.0405 236.856 6.80782 239.725 4.11039C242.636 1.37012 246.126 -7.62939e-06 250.194 -7.62939e-06C254.261 -7.62939e-06 257.729 1.37012 260.598 4.11039C263.51 6.80782 264.965 10.0405 264.965 13.8083C264.965 17.619 263.51 20.8945 260.598 23.6347C257.729 26.3322 254.261 27.6809 250.194 27.6809Z" fill="#FF9737"/>
<path d="M265.6 63.4771V138.771H238.24V41.4927C265.6 41.4927 265.6 63.4771 265.6 63.4771Z" fill="#FF9737"/>
<path d="M297.587 138.772C293.348 138.772 289.709 137.273 286.669 134.276C283.671 131.236 282.173 127.596 282.173 123.358C282.173 119.162 283.671 115.565 286.669 112.568C289.709 109.571 293.348 108.072 297.587 108.072C301.697 108.072 305.294 109.571 308.377 112.568C311.459 115.565 313.001 119.162 313.001 123.358C313.001 126.183 312.273 128.774 310.817 131.129C309.404 133.441 307.542 135.303 305.23 136.716C302.917 138.086 300.37 138.772 297.587 138.772Z" fill="#FF9737"/>
<path d="M188.556 41.4873V97.3484C188.598 101.697 187.731 105.35 185.955 108.305C184.22 111.261 181.936 113.499 179.102 115.019C176.268 116.497 173.223 117.235 169.966 117.235C164.848 117.235 160.766 115.568 157.72 112.232C154.675 108.896 153.131 104.357 153.089 98.6151V41.4873H126.06V103.429C126.102 111.029 127.498 117.552 130.247 122.999C133.039 128.446 136.909 132.647 141.858 135.603C146.807 138.558 152.539 140.036 159.053 140.036C166.37 140.036 172.567 138.305 177.643 134.843C182.761 131.38 186.42 126.799 188.62 121.099H189.635V138.769H215.585L216.359 63.5278C216.359 63.5278 238.241 63.5278 238.241 41.4873H215.585H188.556Z" fill="#FF9737"/>
<path d="M89.7592 58.6873V41.4751H63.2344V140.124H90.5941C90.5941 140.124 90.4015 109.63 90.5941 91.1213C90.8783 63.8253 113.737 63.8253 113.737 63.8253H137.237V41.4751H119.24C117.656 41.3038 115.108 41.4751 113.737 41.4751C108.214 41.4751 104.081 41.6463 99.8425 44.8148C95.6037 47.9404 92.5851 52.5645 90.7868 58.6873H89.7592Z" fill="#FF9737"/>
<path d="M63.2354 41.4751C63.2354 63.8253 41.2323 63.8253 41.2323 63.8253H0C0 63.8253 0 41.4751 13.9368 41.4751C27.8736 41.4751 63.2354 41.4751 63.2354 41.4751ZM13.9368 140.124V34.3461C13.9368 27.1957 15.3283 21.2657 18.1114 16.5558C20.9373 11.846 24.7908 8.31366 29.6718 5.95875C34.5529 3.60384 40.0977 2.42638 46.3061 2.42638C50.5021 2.42638 54.3342 2.74751 57.8023 3.38976C61.3133 4.03201 63.9251 4.61003 65.6377 5.12383C65.6377 5.12383 65.3191 24.4661 52.0221 24.2628C47.9973 24.2628 45.1928 25.2048 43.6086 27.0887C42.0244 28.9298 41.2323 31.5202 41.2323 34.8599V140.124H13.9368Z" fill="#FF9737"/>
<mask id="mask0_7_101" style="mask-type:alpha" maskUnits="userSpaceOnUse" x="0" y="0" width="314" height="141">
<path d="M250.194 27.6809C246.126 27.6809 242.636 26.3322 239.725 23.6347C236.856 20.8945 235.422 17.619 235.422 13.8083C235.422 10.0405 236.856 6.80782 239.725 4.11039C242.636 1.37012 246.126 -7.62939e-06 250.194 -7.62939e-06C254.261 -7.62939e-06 257.729 1.37012 260.598 4.11039C263.51 6.80782 264.965 10.0405 264.965 13.8083C264.965 17.619 263.51 20.8945 260.598 23.6347C257.729 26.3322 254.261 27.6809 250.194 27.6809Z" fill="#F4A256"/>
<path d="M265.6 63.4771V138.771H238.24V41.4927C265.6 41.4927 265.6 63.4771 265.6 63.4771Z" fill="#F4A256"/>
<path d="M297.587 138.772C293.348 138.772 289.709 137.273 286.669 134.276C283.671 131.236 282.173 127.596 282.173 123.358C282.173 119.162 283.671 115.565 286.669 112.568C289.709 109.571 293.348 108.072 297.587 108.072C301.697 108.072 305.294 109.571 308.377 112.568C311.459 115.565 313.001 119.162 313.001 123.358C313.001 126.183 312.273 128.774 310.817 131.129C309.404 133.441 307.542 135.303 305.23 136.716C302.917 138.086 300.37 138.772 297.587 138.772Z" fill="#F4A256"/>
<path d="M188.556 41.4873V97.3484C188.598 101.697 187.731 105.35 185.955 108.305C184.22 111.261 181.936 113.499 179.102 115.019C176.268 116.497 173.223 117.235 169.966 117.235C164.848 117.235 160.766 115.568 157.72 112.232C154.675 108.896 153.131 104.357 153.089 98.6151V41.4873H126.06V103.429C126.102 111.029 127.498 117.552 130.247 122.999C133.039 128.446 136.909 132.647 141.858 135.603C146.807 138.558 152.539 140.036 159.053 140.036C166.37 140.036 172.567 138.305 177.643 134.843C182.761 131.38 186.42 126.799 188.62 121.099H189.635V138.769H215.585L216.359 63.5278C216.359 63.5278 238.241 63.5278 238.241 41.4873H215.585H188.556Z" fill="#F4A256"/>
<path d="M89.7592 58.6873V41.4751H63.2344V140.124H90.5941C90.5941 140.124 90.4015 109.63 90.5941 91.1213C90.8783 63.8253 113.737 63.8253 113.737 63.8253H137.237V41.4751H119.24C117.656 41.3038 115.108 41.4751 113.737 41.4751C108.214 41.4751 104.081 41.6463 99.8425 44.8148C95.6037 47.9404 92.5851 52.5645 90.7868 58.6873H89.7592Z" fill="#F4A256"/>
<path d="M63.2354 41.4751C63.2354 63.8253 41.2323 63.8253 41.2323 63.8253H0C0 63.8253 0 41.4751 13.9368 41.4751C27.8736 41.4751 63.2354 41.4751 63.2354 41.4751ZM13.9368 140.124V34.3461C13.9368 27.1957 15.3283 21.2657 18.1114 16.5558C20.9373 11.846 24.7908 8.31366 29.6718 5.95875C34.5529 3.60384 40.0977 2.42638 46.3061 2.42638C50.5021 2.42638 54.3342 2.74751 57.8023 3.38976C61.3133 4.03201 63.9251 4.61003 65.6377 5.12383C65.6377 5.12383 65.3191 24.4661 52.0221 24.2628C47.9973 24.2628 45.1928 25.2048 43.6086 27.0887C42.0244 28.9298 41.2323 31.5202 41.2323 34.8599V140.124H13.9368Z" fill="#F4A256"/>
</mask>
<g mask="url(#mask0_7_101)">
<path d="M-131.463 -34.2436C-116.955 69.4863 -339.275 164.748 -188.657 143.682C-72.4695 107.513 -238.823 60.1376 -110.573 113.668C81.9765 -72.0199 126.276 278.056 485.068 -34.2436C470.559 -137.973 265.604 -281.273 114.986 -260.207C-35.6326 -239.141 -145.971 -137.973 -131.463 -34.2436Z" fill="#FFC659"/>
</g>
</svg>
